<?xml version="1.0" encoding="UTF-8" standalone="no"?>
<svg
   xmlns:dc="http://purl.org/dc/elements/1.1/"
   xmlns:cc="http://creativecommons.org/ns#"
   xmlns:rdf="http://www.w3.org/1999/02/22-rdf-syntax-ns#"
   xmlns:svg="http://www.w3.org/2000/svg"
   xmlns="http://www.w3.org/2000/svg"
   xmlns:sodipodi="http://sodipodi.sourceforge.net/DTD/sodipodi-0.dtd"
   xmlns:inkscape="http://www.inkscape.org/namespaces/inkscape"
   viewBox="0 0 235.12 4.81"
   version="1.1"
   id="svg14"
   sodipodi:docname="linea2.svg"
   inkscape:version="1.0.2 (e86c870879, 2021-01-15)">
  <metadata
     id="metadata20">
    <rdf:RDF>
      <cc:Work
         rdf:about="">
        <dc:format>image/svg+xml</dc:format>
        <dc:type
           rdf:resource="http://purl.org/dc/dcmitype/StillImage" />
      </cc:Work>
    </rdf:RDF>
  </metadata>
  <defs
     id="defs18" />
  <sodipodi:namedview
     pagecolor="#ffffff"
     bordercolor="#666666"
     borderopacity="1"
     objecttolerance="10"
     gridtolerance="10"
     guidetolerance="10"
     inkscape:pageopacity="0"
     inkscape:pageshadow="2"
     inkscape:window-width="1920"
     inkscape:window-height="1019"
     id="namedview16"
     showgrid="false"
     inkscape:zoom="4.8868664"
     inkscape:cx="84.307605"
     inkscape:cy="2.405"
     inkscape:window-x="0"
     inkscape:window-y="32"
     inkscape:window-maximized="1"
     inkscape:current-layer="svg14"
     inkscape:document-rotation="0" />
  <g
     id="Capa_2"
     data-name="Capa 2"
     style="fill:#2b3948;fill-opacity:1">
    <g
       id="Layer_1"
       data-name="Layer 1"
       style="fill:#2b3948;fill-opacity:1">
      <path
         d="M1.09,4c22.79-.13,45.57-.52,68.37-.15a1.31,1.31,0,0,0,0-2.61C46.68.82,23.85.66,1.09,1.7A1.13,1.13,0,0,0,1.09,4Z"
         id="path2"
         style="fill:#2b3948;fill-opacity:1" />
      <path
         d="M82.13,4c22.8-.13,45.57-.52,68.37-.15a1.31,1.31,0,0,0,0-2.61C127.72.82,104.89.66,82.13,1.7a1.13,1.13,0,0,0,0,2.25Z"
         id="path4"
         style="fill:#2b3948;fill-opacity:1" />
      <path
         d="M165.49,4c22.79-.13,45.57-.52,68.37-.15a1.31,1.31,0,0,0,0-2.61c-22.78-.37-45.61-.53-68.37.51a1.13,1.13,0,0,0,0,2.25Z"
         id="path6"
         style="fill:#2b3948;fill-opacity:1" />
      <path
         d="M76.1,4.81c3.1,0,3.1-4.81,0-4.81S73,4.81,76.1,4.81Z"
         id="path8"
         style="fill:#2b3948;fill-opacity:1" />
      <path
         d="M156.52,4.81c3.1,0,3.1-4.81,0-4.81s-3.09,4.81,0,4.81Z"
         id="path10"
         style="fill:#2b3948;fill-opacity:1" />
    </g>
  </g>
</svg>
