<?xml version="1.0" encoding="UTF-8" standalone="no"?>
<svg
   xmlns:dc="http://purl.org/dc/elements/1.1/"
   xmlns:cc="http://creativecommons.org/ns#"
   xmlns:rdf="http://www.w3.org/1999/02/22-rdf-syntax-ns#"
   xmlns:svg="http://www.w3.org/2000/svg"
   xmlns="http://www.w3.org/2000/svg"
   xmlns:sodipodi="http://sodipodi.sourceforge.net/DTD/sodipodi-0.dtd"
   xmlns:inkscape="http://www.inkscape.org/namespaces/inkscape"
   viewBox="0 0 248.27 19.15"
   version="1.1"
   id="svg8"
   sodipodi:docname="linea1.svg"
   inkscape:version="1.0.2 (e86c870879, 2021-01-15, custom)">
  <metadata
     id="metadata14">
    <rdf:RDF>
      <cc:Work
         rdf:about="">
        <dc:format>image/svg+xml</dc:format>
        <dc:type
           rdf:resource="http://purl.org/dc/dcmitype/StillImage" />
      </cc:Work>
    </rdf:RDF>
  </metadata>
  <defs
     id="defs12" />
  <sodipodi:namedview
     pagecolor="#ffffff"
     bordercolor="#666666"
     borderopacity="1"
     objecttolerance="10"
     gridtolerance="10"
     guidetolerance="10"
     inkscape:pageopacity="0"
     inkscape:pageshadow="2"
     inkscape:window-width="1920"
     inkscape:window-height="1017"
     id="namedview10"
     showgrid="false"
     inkscape:zoom="2.2314415"
     inkscape:cx="150.22166"
     inkscape:cy="2.8740818"
     inkscape:window-x="-8"
     inkscape:window-y="-8"
     inkscape:window-maximized="1"
     inkscape:current-layer="svg8"
     inkscape:document-rotation="0" />
  <path
     d="M 0.07,11.66 C 10.29,7.57 20.25,5.27 31.33,5.91 c 11.08,0.64 21.68,3.48 32.55,5 A 85.74,85.74 0 0 0 93.68,10 c 11.21,-2.35 22.16,-6.45 33.67,-7.22 20,-1.35 37.74,10.34 57.51,10.82 20.21,0.4 44.81,-21.6 61.64,-1.87 0.89,1 2.38,-0.47 1.5,-1.5 C 234.54,-5.63 216,4.13 199.79,9.09 175.55,16.49 154.44,-0.32 130.47,0 119.78,0.15 109.47,3.46 99.18,6 84.88,9.56 72,9.75 57.44,7.26 39,4.09 15.92,-2 0,11.56 c 0,0 0,0.12 0.05,0.1 z"
     id="path2"
     style="fill-opacity:1;fill:#386700" />
  <path
     d="M 0.07,17.25 C 10.29,13.16 20.25,10.86 31.33,11.5 42.41,12.14 53,15 63.88,16.47 a 85.74,85.74 0 0 0 29.8,-0.93 c 11.21,-2.35 22.16,-6.45 33.67,-7.22 20,-1.35 37.74,10.34 57.51,10.82 20.21,0.49 44.81,-21.58 61.64,-1.82 0.89,1 2.38,-0.47 1.5,-1.5 C 234.54,0 216,9.72 199.79,14.68 c -24.24,7.4 -45.35,-9.41 -69.32,-9.09 -10.69,0.15 -21,3.46 -31.29,6 C 84.88,15.15 72,15.34 57.44,12.85 39,9.68 15.92,3.62 0,17.15 c 0,0 0,0.12 0.05,0.1 z"
     id="path4"
     style="fill-opacity:1;fill:#386700" />
</svg>
